<?xml version="1.0" encoding="UTF-8"?>
<svg id="Laag_2" xmlns="http://www.w3.org/2000/svg" viewBox="0 0 203.16 67.63">
  <defs>
    <style>
      .cls-1 {
        fill: #fff;
      }
    </style>
  </defs>
  <g id="Laag_1-2" data-name="Laag_1">
    <g>
      <path class="cls-1" d="M33.41,1.25c-.76-.83-1.91-1.25-3.45-1.25s-2.61.5-3.43,1.51c-.82,1.01-1.41,2.26-1.75,3.75l-4.63,19.25c-.08.32-.15.57-.22.75-.08.17-.22.26-.45.26-.2,0-.34-.09-.43-.28-.09-.19-.17-.44-.24-.76L14.25,5.26c-.35-1.49-.9-2.74-1.66-3.75-.76-1.01-1.92-1.51-3.49-1.51-1.42,0-2.5.42-3.25,1.25-.75.83-1.27,2.07-1.57,3.71L0,28.47h4.37l3.96-23.69c.05-.37.15-.63.3-.78s.32-.22.52-.22c.22,0,.4.08.52.22.12.15.24.44.34.86l4.51,19.29c.32,1.34.83,2.48,1.53,3.41.7.93,1.84,1.4,3.43,1.4s2.68-.43,3.41-1.29c.73-.86,1.29-2.08,1.66-3.67l4.55-19.18c.1-.4.22-.67.37-.82.15-.15.34-.22.56-.22.2,0,.36.08.49.22.12.15.21.41.26.78l3.88,23.69h4.55l-4.22-23.51c-.3-1.64-.83-2.88-1.59-3.71Z"/>
      <rect class="cls-1" x="44.62" y=".49" width="4.29" height="27.98"/>
      <polygon class="cls-1" points="60.29 16.16 78.02 16.16 78.02 28.47 82.31 28.47 82.31 .49 78.02 .49 78.02 12.24 60.29 12.24 60.29 .49 56 .49 56 28.47 60.29 28.47 60.29 16.16"/>
      <path class="cls-1" d="M106.71,4.18c-.5-1.14-1.1-2.13-1.81-2.95s-1.77-1.23-3.19-1.23-2.51.43-3.19,1.29c-.68.86-1.32,1.96-1.92,3.3l-10.56,23.88h4.59l3.21-7.54h15.67l3.21,7.54h4.66l-10.67-24.29ZM95.52,16.98l5.04-11.87c.2-.47.38-.78.54-.91.16-.14.35-.21.58-.21s.42.08.6.24.35.47.52.91l5.04,11.83h-12.31Z"/>
      <polygon class="cls-1" points="143.54 24.74 125.4 24.74 125.4 16.12 143.54 16.12 143.54 12.39 125.4 12.39 125.4 4.22 143.54 4.22 143.54 .49 121.11 .49 121.11 28.47 143.54 28.47 143.54 24.74"/>
      <polygon class="cls-1" points="170.33 24.74 153.69 24.74 153.69 .49 149.4 .49 149.4 28.47 170.33 28.47 170.33 24.74"/>
      <path class="cls-1" d="M179.25,20.93h15.67l3.21,7.54h4.66l-10.67-24.29c-.5-1.14-1.1-2.13-1.81-2.95s-1.77-1.23-3.19-1.23-2.51.43-3.19,1.29c-.68.86-1.33,1.96-1.92,3.3l-10.56,23.88h4.59l3.21-7.54ZM185.96,5.11c.2-.47.38-.78.54-.91s.35-.21.58-.21.42.08.6.24c.17.16.35.47.52.91l5.04,11.83h-12.31l5.04-11.87Z"/>
      <polygon class="cls-1" points=".99 67.09 9.2 67.09 9.2 55.52 25.25 55.52 25.25 48.74 9.2 48.74 9.2 43.08 25.25 43.08 25.25 36.3 .99 36.3 .99 67.09"/>
      <rect class="cls-1" x="30.59" y="36.3" width="8.21" height="30.79"/>
      <polygon class="cls-1" points="42.7 43.08 54.41 43.08 54.41 67.09 62.62 67.09 62.62 43.08 74.32 43.08 74.32 36.3 42.7 36.3 42.7 43.08"/>
      <path class="cls-1" d="M103.51,59.79c0,.27-.05.49-.14.64-.1.15-.28.23-.55.23-.22,0-.38-.09-.47-.27-.1-.18-.18-.36-.27-.55l-6.69-16.34c-.93-2.3-2.14-4.15-3.63-5.56-1.49-1.41-3.55-2.11-6.18-2.11-1.1,0-2.16.19-3.18.57-1.03.38-1.92.94-2.67,1.66-.75.73-1.36,1.64-1.83,2.73-.47,1.1-.7,2.34-.7,3.74v22.58h8.21v-23.45c0-.27.05-.49.14-.64.1-.15.28-.23.55-.23.22,0,.38.09.47.27.1.18.18.36.27.55l6.69,16.34c.99,2.38,2.21,4.26,3.67,5.62,1.46,1.37,3.51,2.05,6.14,2.05,1.09,0,2.16-.18,3.18-.53,1.03-.36,1.92-.9,2.67-1.62.75-.72,1.36-1.64,1.83-2.73s.7-2.37.7-3.82v-22.62h-8.21v23.49Z"/>
      <path class="cls-1" d="M171.55,52.23c-1.59-1.34-3.98-2.49-7.19-3.45l-7.23-2.18c-.85-.27-1.47-.55-1.87-.84-.4-.29-.59-.68-.59-1.17,0-.38.2-.73.59-1.05.4-.31,1.1-.47,2.12-.47h15.52v-6.78h-15.81c-3.5,0-6.1.75-7.8,2.26-1.7,1.51-2.55,3.54-2.55,6.12,0,2.14.68,3.92,2.05,5.36,1.37,1.44,3.48,2.58,6.32,3.43l7.43,2.18c1.45.44,2.41.82,2.87,1.15.47.33.7.82.7,1.48,0,.55-.21,1.03-.62,1.44s-1.27.62-2.59.62h-37.86v-5.34h17.7v-6.57h-17.7v-5.34h17.7v-6.78h-25.7v30.79h45.04c4,0,6.97-.86,8.91-2.57,1.94-1.71,2.92-3.92,2.92-6.63,0-2.44-.79-4.33-2.38-5.67Z"/>
      <path class="cls-1" d="M200.76,52.21c-1.6-1.36-3.99-2.5-7.17-3.43l-7.51-2.18c-.77-.22-1.32-.49-1.66-.8-.34-.31-.51-.72-.51-1.21,0-.38.18-.73.53-1.05.36-.31.97-.47,1.85-.47h15.85v-6.78h-15.81c-3.28,0-5.83.75-7.64,2.26-1.81,1.51-2.71,3.54-2.71,6.12,0,2.05.68,3.82,2.05,5.3,1.37,1.48,3.48,2.64,6.32,3.49l7.39,2.18c1.4.41,2.35.79,2.85,1.13.51.34.76.84.76,1.5,0,.55-.21,1.03-.62,1.44s-1.14.62-2.18.62h-15.77v6.78h14.54c2,0,3.74-.25,5.23-.74,1.49-.49,2.72-1.15,3.7-1.97s1.7-1.79,2.18-2.92c.48-1.12.72-2.31.72-3.57,0-2.44-.8-4.33-2.4-5.69Z"/>
    </g>
  </g>
</svg>