<?xml version="1.0" encoding="utf-8"?>
<!-- Generator: Adobe Illustrator 16.0.3, SVG Export Plug-In . SVG Version: 6.00 Build 0)  -->
<!DOCTYPE svg PUBLIC "-//W3C//DTD SVG 1.1//EN" "http://www.w3.org/Graphics/SVG/1.1/DTD/svg11.dtd">
<svg version="1.1" id="Layer_1" xmlns="http://www.w3.org/2000/svg" xmlns:xlink="http://www.w3.org/1999/xlink" x="0px" y="0px"
	 width="499.249px" height="129.334px" viewBox="0 0 499.249 129.334" enable-background="new 0 0 499.249 129.334"
	 xml:space="preserve">
<rect x="77.624" y="28.012" fill="#ED1C24" width="22.396" height="60.837"/>
<g>
	<path fill="#ED1C24" d="M390.291,62.249v4.052c0,0-0.109,6.789-5.147,6.789h-7.666c0,0-6.461-0.646-6.461-5.613V42.788h36.518
		V27.942h-36.518V13.009h-22.396v14.933h-11.936v14.845h11.936v24.689v6.27c0,0,0.168,15.987,21.74,15.987h21.572
		c0,0,15.659,0.548,15.659-17.63v-9.855H390.291z"/>
	<path fill="#ED1C24" d="M218.715,26.549h-9.305c-23.044,0-24,13.652-24,13.652c-5.044-12.956-20.002-13.565-20.002-13.565h-14.259
		c-11.511,0-17.103,7.497-19.215,11.344v-9.969h-22.397V88.85h22.397V54.403c1.538-10.975,12.866-10.375,12.866-10.375h12.435
		c9.131,0,8.738,9.826,8.738,9.826V88.85h22.395V53.854c0,0-0.09-9.826,11.651-9.826h14c0,0,8.389,0.605,8.389,8.259V88.85h22.397
		V52.287C244.805,27.154,218.715,26.549,218.715,26.549"/>
	<rect x="77.624" y="1.75" fill="#ED1C24" width="22.396" height="16.672"/>
	<path fill="#ED1C24" d="M52.538,26.896H41.581c-10.863,0-16.25,6.778-18.605,11.182V28.012H0.58V88.85h22.396V51.471
		c3.953-7.924,11.214-8.052,11.214-8.052h8.522c8.522,0,7.565,10.522,7.565,10.522h20.435V40.896
		C70.711,27.854,52.538,26.896,52.538,26.896"/>
	<path fill="#ED1C24" d="M311.883,27.228h-37.214c-20.805,0-22.297,13.661-22.297,13.661v3.847l22.219,0.393
		c0-5.339,5.338-4.946,5.338-4.946h21.512c7.93,0,7.684,6.033,7.684,6.033v11.682c-1.792-5.835-6.317-8.457-15.948-8.457h-26.551
		c-9.318,0-16.94,7.624-16.94,16.942v6.241c0,9.318,7.622,16.942,16.94,16.942h26.551c7.322,0,13.596-4.71,15.948-11.248V88.85
		h22.396V46.216C331.521,27.048,311.883,27.228,311.883,27.228 M301.954,75.435h-22.771c-3.994,0-7.262-3.021-7.262-6.714
		c0-3.691,3.268-6.711,7.262-6.711h22.771c3.626,0,6.646,2.494,7.171,5.717v1.989C308.6,72.939,305.58,75.435,301.954,75.435"/>
	<path fill="#ED1C24" d="M477.466,26.947h-43.091c-11.979,0-21.782,9.802-21.782,21.783v19.3c0,11.98,9.803,21.782,21.782,21.782
		h43.091c11.98,0,21.782-9.802,21.782-21.782v-19.3C499.249,36.75,489.447,26.947,477.466,26.947 M476.598,62.985
		c0,5.717-4.678,10.396-10.396,10.396h-20.563c-5.717,0-10.396-4.679-10.396-10.396v-9.21c0-5.718,4.679-10.395,10.396-10.395
		h20.563c5.718,0,10.396,4.677,10.396,10.395V62.985z"/>
	<rect x="1.535" y="108.218" width="4.786" height="18.405"/>
	<polygon points="18.928,108.218 18.928,126.623 14.733,126.623 12.243,118.256 12.243,126.623 8.242,126.623 8.242,108.218 
		12.243,108.218 14.927,116.505 14.927,108.218 	"/>
	<path d="M20.849,108.218h3.581c2.311,0,3.874,0.105,4.689,0.318c0.815,0.212,1.434,0.561,1.859,1.046
		c0.424,0.484,0.69,1.024,0.796,1.62c0.106,0.595,0.159,1.764,0.159,3.507v6.446c0,1.652-0.078,2.757-0.233,3.313
		c-0.156,0.557-0.426,0.993-0.813,1.308c-0.387,0.314-0.864,0.534-1.433,0.659c-0.568,0.125-1.424,0.188-2.569,0.188h-6.036V108.218
		z M25.635,111.367v12.106c0.689,0,1.114-0.138,1.273-0.415c0.159-0.276,0.239-1.028,0.239-2.256v-7.151
		c0-0.833-0.027-1.367-0.08-1.603c-0.053-0.235-0.174-0.407-0.364-0.518C26.514,111.422,26.158,111.367,25.635,111.367"/>
	<path d="M44.597,108.218v12.301c0,1.395-0.045,2.374-0.136,2.938c-0.092,0.564-0.361,1.145-0.807,1.74
		c-0.448,0.594-1.037,1.045-1.768,1.352c-0.732,0.308-1.594,0.461-2.587,0.461c-1.098,0-2.069-0.182-2.91-0.546
		c-0.841-0.363-1.47-0.837-1.887-1.421s-0.663-1.199-0.739-1.848c-0.076-0.647-0.114-2.01-0.114-4.087v-10.891h4.786v13.801
		c0,0.804,0.044,1.317,0.131,1.541c0.087,0.224,0.263,0.335,0.529,0.335c0.303,0,0.498-0.123,0.585-0.369
		c0.087-0.245,0.131-0.828,0.131-1.744v-13.563H44.597z"/>
	<path d="M56.591,113.788h-4.445v-1.364c0-0.636-0.057-1.042-0.171-1.217c-0.113-0.174-0.303-0.261-0.568-0.261
		c-0.288,0-0.506,0.117-0.654,0.353s-0.222,0.592-0.222,1.069c0,0.614,0.083,1.077,0.249,1.388c0.159,0.312,0.61,0.687,1.353,1.125
		c2.131,1.265,3.473,2.304,4.026,3.113c0.553,0.812,0.829,2.119,0.829,3.923c0,1.311-0.153,2.277-0.459,2.898
		c-0.308,0.621-0.901,1.143-1.78,1.563c-0.879,0.42-1.902,0.631-3.069,0.631c-1.281,0-2.375-0.242-3.28-0.728
		c-0.906-0.485-1.499-1.103-1.779-1.854c-0.28-0.75-0.421-1.814-0.421-3.194v-1.205h4.445v2.239c0,0.69,0.063,1.134,0.188,1.33
		c0.125,0.197,0.346,0.296,0.665,0.296c0.318,0,0.555-0.125,0.71-0.375c0.155-0.25,0.234-0.621,0.234-1.114
		c0-1.084-0.148-1.792-0.444-2.126c-0.303-0.333-1.05-0.891-2.24-1.671c-1.189-0.788-1.978-1.36-2.364-1.716
		c-0.386-0.357-0.707-0.85-0.961-1.479c-0.254-0.629-0.381-1.433-0.381-2.41c0-1.41,0.18-2.44,0.54-3.092
		c0.36-0.652,0.942-1.162,1.746-1.53c0.803-0.367,1.773-0.551,2.91-0.551c1.242,0,2.302,0.201,3.177,0.604
		c0.875,0.4,1.455,0.906,1.74,1.517c0.284,0.61,0.426,1.646,0.426,3.109V113.788z"/>
	<polygon points="68.13,108.218 68.13,111.9 65.288,111.9 65.288,126.623 60.502,126.623 60.502,111.9 57.671,111.9 57.671,108.218 
			"/>
	<path d="M69.221,108.218h3.388c2.258,0,3.787,0.087,4.586,0.261c0.8,0.175,1.452,0.62,1.956,1.336
		c0.504,0.717,0.756,1.859,0.756,3.428c0,1.433-0.178,2.396-0.534,2.888c-0.357,0.493-1.057,0.788-2.103,0.887
		c0.947,0.235,1.584,0.55,1.909,0.943c0.326,0.395,0.529,0.757,0.609,1.086c0.079,0.33,0.119,1.238,0.119,2.723v4.854h-4.445v-6.116
		c0-0.985-0.078-1.596-0.233-1.83c-0.156-0.235-0.563-0.353-1.222-0.353v8.299h-4.786V108.218z M74.007,111.367v4.092
		c0.538,0,0.915-0.073,1.131-0.222c0.216-0.147,0.324-0.627,0.324-1.438v-1.012c0-0.584-0.104-0.967-0.313-1.148
		C74.941,111.458,74.56,111.367,74.007,111.367"/>
	<rect x="81.761" y="108.218" width="4.786" height="18.405"/>
	<path d="M91.354,107.638h-2.967v-2.956h2.967V107.638z M88.467,108.218h7.981v3.684h-3.195v3.49h2.99v3.501h-2.99v4.047h3.513
		v3.684h-8.299V108.218z M96.324,107.638h-2.967v-2.956h2.967V107.638z"/>
	<polygon points="102.929,108.218 102.929,122.939 105.839,122.939 105.839,126.623 98.143,126.623 98.143,108.218 	"/>
	<polygon points="106.998,108.218 114.978,108.218 114.978,111.9 111.784,111.9 111.784,115.392 114.774,115.392 114.774,118.893 
		111.784,118.893 111.784,122.939 115.297,122.939 115.297,126.623 106.998,126.623 	"/>
	<path d="M120.777,108.218h3.388c2.258,0,3.787,0.087,4.586,0.261c0.8,0.175,1.452,0.62,1.956,1.336
		c0.504,0.717,0.756,1.859,0.756,3.428c0,1.433-0.178,2.396-0.534,2.888c-0.357,0.493-1.057,0.788-2.103,0.887
		c0.947,0.235,1.584,0.55,1.909,0.943c0.326,0.395,0.529,0.757,0.609,1.086c0.079,0.33,0.119,1.238,0.119,2.723v4.854h-4.445v-6.116
		c0-0.985-0.078-1.596-0.233-1.83c-0.156-0.235-0.563-0.353-1.222-0.353v8.299h-4.786V108.218z M125.563,111.367v4.092
		c0.538,0,0.915-0.073,1.131-0.222c0.216-0.147,0.324-0.627,0.324-1.438v-1.012c0-0.584-0.104-0.967-0.313-1.148
		C126.497,111.458,126.116,111.367,125.563,111.367"/>
	<polygon points="133.316,108.218 141.296,108.218 141.296,111.9 138.102,111.9 138.102,115.392 141.092,115.392 141.092,118.893 
		138.102,118.893 138.102,122.939 141.615,122.939 141.615,126.623 133.316,126.623 	"/>
	<rect x="142.991" y="108.218" width="4.786" height="18.405"/>
	<polygon points="160.384,108.218 160.384,126.623 156.189,126.623 153.699,118.256 153.699,126.623 149.698,126.623 
		149.698,108.218 153.699,108.218 156.383,116.505 156.383,108.218 	"/>
	<rect x="162.306" y="108.218" width="4.786" height="18.405"/>
	<path d="M179.994,114.993h-4.786v-1.671c0-1.054-0.046-1.713-0.136-1.979c-0.091-0.266-0.307-0.397-0.648-0.397
		c-0.296,0-0.497,0.113-0.603,0.341s-0.159,0.812-0.159,1.751v8.833c0,0.826,0.053,1.37,0.159,1.631
		c0.106,0.263,0.319,0.393,0.637,0.393c0.349,0,0.585-0.147,0.71-0.443s0.188-0.871,0.188-1.728v-2.183h-0.966v-2.797h5.604v9.879
		h-3.007l-0.443-1.317c-0.326,0.567-0.738,0.993-1.235,1.277c-0.496,0.284-1.082,0.427-1.757,0.427
		c-0.804,0-1.557-0.195-2.259-0.586c-0.701-0.39-1.234-0.873-1.598-1.449c-0.364-0.576-0.592-1.181-0.682-1.813
		c-0.092-0.633-0.137-1.582-0.137-2.848v-5.467c0-1.759,0.095-3.036,0.284-3.832s0.733-1.525,1.631-2.188
		c0.899-0.664,2.06-0.995,3.485-0.995c1.402,0,2.565,0.288,3.49,0.864s1.527,1.26,1.808,2.052c0.28,0.792,0.42,1.942,0.42,3.45
		V114.993z"/>
	<rect x="181.848" y="108.218" width="4.786" height="18.405"/>
	<polygon points="199.241,108.218 199.241,126.623 195.046,126.623 192.556,118.256 192.556,126.623 188.555,126.623 
		188.555,108.218 192.556,108.218 195.24,116.505 195.24,108.218 	"/>
	<path d="M212.144,114.993h-4.786v-1.671c0-1.054-0.046-1.713-0.136-1.979c-0.091-0.266-0.307-0.397-0.648-0.397
		c-0.296,0-0.497,0.113-0.603,0.341s-0.159,0.812-0.159,1.751v8.833c0,0.826,0.053,1.37,0.159,1.631
		c0.106,0.263,0.319,0.393,0.637,0.393c0.349,0,0.585-0.147,0.71-0.443s0.188-0.871,0.188-1.728v-2.183h-0.966v-2.797h5.604v9.879
		h-3.007l-0.443-1.317c-0.326,0.567-0.738,0.993-1.235,1.277c-0.496,0.284-1.082,0.427-1.757,0.427
		c-0.804,0-1.557-0.195-2.259-0.586c-0.701-0.39-1.234-0.873-1.598-1.449c-0.364-0.576-0.592-1.181-0.682-1.813
		c-0.092-0.633-0.137-1.582-0.137-2.848v-5.467c0-1.759,0.095-3.036,0.284-3.832s0.733-1.525,1.631-2.188
		c0.899-0.664,2.06-0.995,3.485-0.995c1.402,0,2.565,0.288,3.49,0.864c0.925,0.576,1.527,1.26,1.808,2.052
		c0.28,0.792,0.42,1.942,0.42,3.45V114.993z"/>
	<rect x="223.17" y="106.034" width="2.467" height="21.418"/>
	<path d="M247.658,114.993h-4.786v-1.671c0-1.054-0.046-1.713-0.136-1.979c-0.091-0.266-0.307-0.397-0.648-0.397
		c-0.296,0-0.497,0.113-0.603,0.341s-0.159,0.812-0.159,1.751v8.833c0,0.826,0.053,1.37,0.159,1.631
		c0.106,0.263,0.319,0.393,0.637,0.393c0.349,0,0.585-0.147,0.71-0.443s0.188-0.871,0.188-1.728v-2.183h-0.966v-2.797h5.604v9.879
		h-3.007l-0.443-1.317c-0.326,0.567-0.738,0.993-1.235,1.277c-0.496,0.284-1.082,0.427-1.757,0.427
		c-0.804,0-1.557-0.195-2.259-0.586c-0.701-0.39-1.234-0.873-1.598-1.449c-0.364-0.576-0.592-1.181-0.682-1.813
		c-0.092-0.633-0.137-1.582-0.137-2.848v-5.467c0-1.759,0.095-3.036,0.284-3.832s0.733-1.525,1.631-2.188
		c0.899-0.664,2.06-0.995,3.485-0.995c1.402,0,2.565,0.288,3.49,0.864s1.528,1.26,1.808,2.052s0.42,1.942,0.42,3.45V114.993z"/>
	<polygon points="249.488,108.218 257.467,108.218 257.467,111.9 254.274,111.9 254.274,115.392 257.264,115.392 257.264,118.893 
		254.274,118.893 254.274,122.939 257.787,122.939 257.787,126.623 249.488,126.623 	"/>
	<path d="M270.518,108.218l-2.436,18.405h-7.27l-2.766-18.405h5.048c0.586,5.069,1.005,9.359,1.256,12.869
		c0.247-3.547,0.51-6.696,0.787-9.447l0.333-3.422H270.518z"/>
	<polygon points="271.302,108.218 279.282,108.218 279.282,111.9 276.089,111.9 276.089,115.392 279.078,115.392 279.078,118.893 
		276.089,118.893 276.089,122.939 279.601,122.939 279.601,126.623 271.302,126.623 	"/>
	<polygon points="285.74,108.218 285.74,122.939 288.65,122.939 288.65,126.623 280.954,126.623 280.954,108.218 	"/>
	<path d="M289.787,108.218h4.774c1.508,0,2.65,0.117,3.428,0.353c0.776,0.234,1.404,0.71,1.882,1.425
		c0.478,0.716,0.716,1.869,0.716,3.46c0,1.075-0.169,1.825-0.506,2.249c-0.337,0.425-1.002,0.75-1.995,0.978
		c1.106,0.25,1.856,0.665,2.251,1.245c0.394,0.58,0.59,1.47,0.59,2.668v1.706c0,1.243-0.141,2.165-0.425,2.764
		c-0.284,0.6-0.737,1.009-1.358,1.229c-0.622,0.219-1.896,0.33-3.82,0.33h-5.536V108.218z M294.573,111.366v4.093
		c0.204-0.007,0.363-0.011,0.478-0.011c0.47,0,0.769-0.116,0.897-0.347c0.129-0.231,0.193-0.893,0.193-1.984
		c0-0.576-0.053-0.979-0.159-1.21c-0.105-0.231-0.244-0.377-0.415-0.438C295.397,111.408,295.065,111.374,294.573,111.366
		 M294.573,118.324v5.149c0.674-0.022,1.104-0.129,1.29-0.318c0.186-0.188,0.278-0.655,0.278-1.397v-1.717
		c0-0.788-0.083-1.266-0.25-1.433S295.285,118.347,294.573,118.324"/>
	<polygon points="302.621,108.218 310.6,108.218 310.6,111.9 307.407,111.9 307.407,115.392 310.396,115.392 310.396,118.893 
		307.407,118.893 307.407,122.939 310.919,122.939 310.919,126.623 302.621,126.623 	"/>
	<polygon points="323.277,108.218 323.277,126.623 318.491,126.623 318.491,118.893 317.058,118.893 317.058,126.623 
		312.272,126.623 312.272,108.218 317.058,108.218 317.058,114.8 318.491,114.8 318.491,108.218 	"/>
	<polygon points="325.174,108.218 333.155,108.218 333.155,111.9 329.96,111.9 329.96,115.392 332.95,115.392 332.95,118.893 
		329.96,118.893 329.96,122.939 333.473,122.939 333.473,126.623 325.174,126.623 	"/>
	<polygon points="334.826,108.218 342.806,108.218 342.806,111.9 339.612,111.9 339.612,115.392 342.601,115.392 342.601,118.893 
		339.612,118.893 339.612,122.939 343.125,122.939 343.125,126.623 334.826,126.623 	"/>
	<path d="M344.477,108.218h3.388c2.259,0,3.787,0.087,4.587,0.261c0.8,0.175,1.451,0.62,1.955,1.336
		c0.504,0.717,0.757,1.859,0.757,3.428c0,1.433-0.179,2.396-0.535,2.888c-0.355,0.493-1.057,0.788-2.103,0.887
		c0.947,0.235,1.584,0.55,1.91,0.943c0.325,0.395,0.528,0.757,0.607,1.086c0.08,0.33,0.12,1.238,0.12,2.723v4.854h-4.445v-6.116
		c0-0.985-0.078-1.596-0.233-1.83c-0.155-0.235-0.563-0.353-1.222-0.353v8.299h-4.786V108.218z M349.263,111.367v4.092
		c0.538,0,0.915-0.073,1.131-0.222c0.216-0.147,0.324-0.627,0.324-1.438v-1.012c0-0.584-0.104-0.967-0.313-1.148
		C350.197,111.458,349.816,111.367,349.263,111.367"/>
	<rect x="366.469" y="106.034" width="2.467" height="21.418"/>
	<path d="M380.02,108.218h3.388c2.259,0,3.787,0.087,4.586,0.261c0.801,0.175,1.452,0.62,1.956,1.336
		c0.503,0.717,0.757,1.859,0.757,3.428c0,1.433-0.179,2.396-0.535,2.888c-0.355,0.493-1.057,0.788-2.103,0.887
		c0.947,0.235,1.584,0.55,1.91,0.943c0.325,0.395,0.528,0.757,0.607,1.086c0.08,0.33,0.12,1.238,0.12,2.723v4.854h-4.445v-6.116
		c0-0.985-0.078-1.596-0.233-1.83c-0.156-0.235-0.563-0.353-1.222-0.353v8.299h-4.786V108.218z M384.806,111.367v4.092
		c0.538,0,0.915-0.073,1.131-0.222c0.216-0.147,0.324-0.627,0.324-1.438v-1.012c0-0.584-0.104-0.967-0.313-1.148
		C385.74,111.458,385.359,111.367,384.806,111.367"/>
	<rect x="392.559" y="108.218" width="4.786" height="18.405"/>
	<path d="M410.203,118.995c0,1.849-0.044,3.158-0.131,3.928c-0.088,0.77-0.36,1.472-0.818,2.108
		c-0.459,0.637-1.078,1.126-1.859,1.467c-0.78,0.341-1.689,0.512-2.729,0.512c-0.985,0-1.87-0.161-2.654-0.483
		s-1.415-0.805-1.893-1.449s-0.762-1.346-0.853-2.104s-0.137-2.084-0.137-3.979v-3.149c0-1.849,0.044-3.158,0.131-3.928
		s0.36-1.473,0.818-2.109c0.459-0.636,1.078-1.125,1.859-1.466c0.78-0.341,1.689-0.512,2.728-0.512c0.985,0,1.87,0.161,2.655,0.483
		c0.783,0.322,1.415,0.806,1.893,1.449c0.478,0.645,0.762,1.346,0.853,2.104s0.137,2.084,0.137,3.979V118.995z M405.417,112.947
		c0-0.856-0.048-1.404-0.143-1.644c-0.095-0.238-0.29-0.356-0.586-0.356c-0.25,0-0.44,0.096-0.573,0.288
		c-0.133,0.193-0.199,0.765-0.199,1.712v8.594c0,1.069,0.044,1.729,0.131,1.979s0.29,0.375,0.608,0.375
		c0.324,0,0.533-0.144,0.625-0.432c0.091-0.288,0.137-0.974,0.137-2.058V112.947z"/>
	<path d="M422.924,118.995c0,1.849-0.044,3.158-0.131,3.928c-0.088,0.77-0.36,1.472-0.818,2.108
		c-0.459,0.637-1.078,1.126-1.859,1.467c-0.78,0.341-1.689,0.512-2.729,0.512c-0.985,0-1.87-0.161-2.654-0.483
		s-1.415-0.805-1.893-1.449s-0.762-1.346-0.853-2.104s-0.137-2.084-0.137-3.979v-3.149c0-1.849,0.044-3.158,0.131-3.928
		s0.36-1.473,0.818-2.109c0.459-0.636,1.078-1.125,1.859-1.466c0.78-0.341,1.689-0.512,2.728-0.512c0.985,0,1.87,0.161,2.655,0.483
		c0.784,0.322,1.415,0.806,1.893,1.449c0.478,0.645,0.762,1.346,0.853,2.104s0.137,2.084,0.137,3.979V118.995z M418.138,112.947
		c0-0.856-0.048-1.404-0.143-1.644c-0.095-0.238-0.29-0.356-0.585-0.356c-0.25,0-0.441,0.096-0.574,0.288
		c-0.133,0.193-0.199,0.765-0.199,1.712v8.594c0,1.069,0.044,1.729,0.131,1.979s0.29,0.375,0.608,0.375
		c0.325,0,0.534-0.144,0.625-0.432s0.137-0.974,0.137-2.058V112.947z"/>
	<polygon points="429.495,108.218 429.495,122.939 432.405,122.939 432.405,126.623 424.708,126.623 424.708,108.218 	"/>
	<path d="M433.565,108.218h4.774c1.508,0,2.65,0.117,3.428,0.353c0.776,0.234,1.404,0.71,1.882,1.425
		c0.478,0.716,0.716,1.869,0.716,3.46c0,1.075-0.169,1.825-0.506,2.249c-0.337,0.425-1.002,0.75-1.995,0.978
		c1.106,0.25,1.856,0.665,2.251,1.245c0.394,0.58,0.591,1.47,0.591,2.668v1.706c0,1.243-0.142,2.165-0.426,2.764
		c-0.283,0.6-0.737,1.009-1.358,1.229c-0.622,0.219-1.896,0.33-3.82,0.33h-5.536V108.218z M438.351,111.366v4.093
		c0.204-0.007,0.363-0.011,0.478-0.011c0.47,0,0.769-0.116,0.897-0.347c0.129-0.231,0.193-0.893,0.193-1.984
		c0-0.576-0.053-0.979-0.159-1.21c-0.105-0.231-0.244-0.377-0.415-0.438C439.175,111.408,438.843,111.374,438.351,111.366
		 M438.351,118.324v5.149c0.674-0.022,1.104-0.129,1.29-0.318c0.186-0.188,0.278-0.655,0.278-1.397v-1.717
		c0-0.788-0.083-1.266-0.25-1.433S439.063,118.347,438.351,118.324"/>
	<polygon points="446.422,108.218 454.403,108.218 454.403,111.9 451.208,111.9 451.208,115.392 454.198,115.392 454.198,118.893 
		451.208,118.893 451.208,122.939 454.721,122.939 454.721,126.623 446.422,126.623 	"/>
	<polygon points="467.102,108.218 467.102,126.623 462.316,126.623 462.316,118.893 460.883,118.893 460.883,126.623 
		456.097,126.623 456.097,108.218 460.883,108.218 460.883,114.8 462.316,114.8 462.316,108.218 	"/>
	<polygon points="469.023,108.218 477.002,108.218 477.002,111.9 473.809,111.9 473.809,115.392 476.797,115.392 476.797,118.893 
		473.809,118.893 473.809,122.939 477.322,122.939 477.322,126.623 469.023,126.623 	"/>
	<polygon points="478.697,108.218 486.676,108.218 486.676,111.9 483.483,111.9 483.483,115.392 486.472,115.392 486.472,118.893 
		483.483,118.893 483.483,122.939 486.996,122.939 486.996,126.623 478.697,126.623 	"/>
	<path d="M488.372,108.218h3.388c2.259,0,3.787,0.087,4.587,0.261c0.8,0.175,1.451,0.62,1.955,1.336
		c0.504,0.717,0.757,1.859,0.757,3.428c0,1.433-0.179,2.396-0.535,2.888c-0.355,0.493-1.057,0.788-2.103,0.887
		c0.947,0.235,1.584,0.55,1.91,0.943c0.325,0.395,0.528,0.757,0.607,1.086c0.08,0.33,0.12,1.238,0.12,2.723v4.854h-4.445v-6.116
		c0-0.985-0.078-1.596-0.233-1.83c-0.155-0.235-0.563-0.353-1.222-0.353v8.299h-4.786V108.218z M493.158,111.367v4.092
		c0.538,0,0.915-0.073,1.131-0.222c0.216-0.147,0.324-0.627,0.324-1.438v-1.012c0-0.584-0.104-0.967-0.313-1.148
		C494.091,111.458,493.71,111.367,493.158,111.367"/>
</g>
</svg>
