<?xml version="1.0" encoding="UTF-8"?>
<svg xmlns="http://www.w3.org/2000/svg" version="1.1" viewBox="0 0 499.2 129.3">
  <defs>
    <style>
      .cls-1 {
        fill: #fff;
      }
    </style>
  </defs>
  <!-- Generator: Adobe Illustrator 28.7.10, SVG Export Plug-In . SVG Version: 1.2.0 Build 236)  -->
  <g>
    <g id="Layer_1">
      <rect class="cls-1" x="77.6" y="28" width="22.4" height="60.8"/>
      <g>
        <path class="cls-1" d="M390.3,62.2v4.1s-.1,6.8-5.1,6.8h-7.7s-6.5-.6-6.5-5.6v-24.7h36.5v-14.8h-36.5v-14.9h-22.4v14.9h-11.9v14.8h11.9v31s.2,16,21.7,16h21.6s15.7.5,15.7-17.6v-9.9h-17.3Z"/>
        <path class="cls-1" d="M218.7,26.5h-9.3c-23,0-24,13.7-24,13.7-5-13-20-13.6-20-13.6h-14.3c-11.5,0-17.1,7.5-19.2,11.3v-10h-22.4v60.8h22.4v-34.4c1.5-11,12.9-10.4,12.9-10.4h12.4c9.1,0,8.7,9.8,8.7,9.8v35h22.4v-35s0-9.8,11.7-9.8h14s8.4.6,8.4,8.3v36.6h22.4v-36.6c0-25.1-26.1-25.7-26.1-25.7"/>
        <rect class="cls-1" x="77.6" y="1.8" width="22.4" height="16.7"/>
        <path class="cls-1" d="M52.5,26.9h-11c-10.9,0-16.2,6.8-18.6,11.2v-10.1H.6v60.8h22.4v-37.4c4-7.9,11.2-8.1,11.2-8.1h8.5c8.5,0,7.6,10.5,7.6,10.5h20.4v-13c0-13-18.2-14-18.2-14"/>
        <path class="cls-1" d="M311.9,27.2h-37.2c-20.8,0-22.3,13.7-22.3,13.7v3.8l22.2.4c0-5.3,5.3-4.9,5.3-4.9h21.5c7.9,0,7.7,6,7.7,6v11.7c-1.8-5.8-6.3-8.5-15.9-8.5h-26.6c-9.3,0-16.9,7.6-16.9,16.9v6.2c0,9.3,7.6,16.9,16.9,16.9h26.6c7.3,0,13.6-4.7,15.9-11.2v10.5h22.4v-42.6c0-19.2-19.6-19-19.6-19M302,75.4h-22.8c-4,0-7.3-3-7.3-6.7s3.3-6.7,7.3-6.7h22.8c3.6,0,6.6,2.5,7.2,5.7v2c-.5,3.2-3.5,5.7-7.2,5.7"/>
        <path class="cls-1" d="M477.5,26.9h-43.1c-12,0-21.8,9.8-21.8,21.8v19.3c0,12,9.8,21.8,21.8,21.8h43.1c12,0,21.8-9.8,21.8-21.8v-19.3c0-12-9.8-21.8-21.8-21.8M476.6,63c0,5.7-4.7,10.4-10.4,10.4h-20.6c-5.7,0-10.4-4.7-10.4-10.4v-9.2c0-5.7,4.7-10.4,10.4-10.4h20.6c5.7,0,10.4,4.7,10.4,10.4v9.2Z"/>
        <rect class="cls-1" x="1.5" y="108.2" width="4.8" height="18.4"/>
        <polygon class="cls-1" points="18.9 108.2 18.9 126.6 14.7 126.6 12.2 118.3 12.2 126.6 8.2 126.6 8.2 108.2 12.2 108.2 14.9 116.5 14.9 108.2 18.9 108.2"/>
        <path class="cls-1" d="M20.8,108.2h3.6c2.3,0,3.9.1,4.7.3.8.2,1.4.6,1.9,1,.4.5.7,1,.8,1.6.1.6.2,1.8.2,3.5v6.4c0,1.7,0,2.8-.2,3.3-.2.6-.4,1-.8,1.3-.4.3-.9.5-1.4.7-.6.1-1.4.2-2.6.2h-6s0-18.4,0-18.4ZM25.6,111.4v12.1c.7,0,1.1-.1,1.3-.4.2-.3.2-1,.2-2.3v-7.2c0-.8,0-1.4,0-1.6,0-.2-.2-.4-.4-.5-.2-.1-.5-.2-1.1-.2"/>
        <path class="cls-1" d="M44.6,108.2v12.3c0,1.4,0,2.4-.1,2.9,0,.6-.4,1.1-.8,1.7-.4.6-1,1-1.8,1.4-.7.3-1.6.5-2.6.5s-2.1-.2-2.9-.5c-.8-.4-1.5-.8-1.9-1.4s-.7-1.2-.7-1.8c0-.6-.1-2-.1-4.1v-10.9h4.8v13.8c0,.8,0,1.3.1,1.5s.3.3.5.3.5-.1.6-.4c0-.2.1-.8.1-1.7v-13.6h4.8Z"/>
        <path class="cls-1" d="M56.6,113.8h-4.4v-1.4c0-.6,0-1-.2-1.2-.1-.2-.3-.3-.6-.3s-.5.1-.7.4-.2.6-.2,1.1,0,1.1.2,1.4c.2.3.6.7,1.4,1.1,2.1,1.3,3.5,2.3,4,3.1.6.8.8,2.1.8,3.9s-.2,2.3-.5,2.9c-.3.6-.9,1.1-1.8,1.6-.9.4-1.9.6-3.1.6s-2.4-.2-3.3-.7c-.9-.5-1.5-1.1-1.8-1.9-.3-.8-.4-1.8-.4-3.2v-1.2h4.4v2.2c0,.7,0,1.1.2,1.3.1.2.3.3.7.3s.6-.1.7-.4.2-.6.2-1.1c0-1.1-.1-1.8-.4-2.1-.3-.3-1-.9-2.2-1.7-1.2-.8-2-1.4-2.4-1.7-.4-.4-.7-.8-1-1.5-.3-.6-.4-1.4-.4-2.4,0-1.4.2-2.4.5-3.1s.9-1.2,1.7-1.5c.8-.4,1.8-.6,2.9-.6s2.3.2,3.2.6c.9.4,1.5.9,1.7,1.5.3.6.4,1.6.4,3.1,0,0,0,.7,0,.7Z"/>
        <polygon class="cls-1" points="68.1 108.2 68.1 111.9 65.3 111.9 65.3 126.6 60.5 126.6 60.5 111.9 57.7 111.9 57.7 108.2 68.1 108.2"/>
        <path class="cls-1" d="M69.2,108.2h3.4c2.3,0,3.8,0,4.6.3.8.2,1.5.6,2,1.3.5.7.8,1.9.8,3.4s-.2,2.4-.5,2.9c-.4.5-1.1.8-2.1.9.9.2,1.6.6,1.9.9.3.4.5.8.6,1.1,0,.3.1,1.2.1,2.7v4.9h-4.4v-6.1c0-1,0-1.6-.2-1.8-.2-.2-.6-.4-1.2-.4v8.3h-4.8v-18.4ZM74,111.4v4.1c.5,0,.9,0,1.1-.2.2-.1.3-.6.3-1.4v-1c0-.6-.1-1-.3-1.1-.2-.2-.6-.3-1.1-.3"/>
        <rect class="cls-1" x="81.8" y="108.2" width="4.8" height="18.4"/>
        <path class="cls-1" d="M91.4,107.6h-3v-3h3v3ZM88.5,108.2h8v3.7h-3.2v3.5h3v3.5h-3v4h3.5v3.7h-8.3s0-18.4,0-18.4ZM96.3,107.6h-3v-3h3v3Z"/>
        <polygon class="cls-1" points="102.9 108.2 102.9 122.9 105.8 122.9 105.8 126.6 98.1 126.6 98.1 108.2 102.9 108.2"/>
        <polygon class="cls-1" points="107 108.2 115 108.2 115 111.9 111.8 111.9 111.8 115.4 114.8 115.4 114.8 118.9 111.8 118.9 111.8 122.9 115.3 122.9 115.3 126.6 107 126.6 107 108.2"/>
        <path class="cls-1" d="M120.8,108.2h3.4c2.3,0,3.8,0,4.6.3.8.2,1.5.6,2,1.3.5.7.8,1.9.8,3.4s-.2,2.4-.5,2.9c-.4.5-1.1.8-2.1.9.9.2,1.6.6,1.9.9.3.4.5.8.6,1.1,0,.3.1,1.2.1,2.7v4.9h-4.4v-6.1c0-1,0-1.6-.2-1.8-.2-.2-.6-.4-1.2-.4v8.3h-4.8s0-18.4,0-18.4ZM125.6,111.4v4.1c.5,0,.9,0,1.1-.2.2-.1.3-.6.3-1.4v-1c0-.6-.1-1-.3-1.1-.2-.2-.6-.3-1.1-.3"/>
        <polygon class="cls-1" points="133.3 108.2 141.3 108.2 141.3 111.9 138.1 111.9 138.1 115.4 141.1 115.4 141.1 118.9 138.1 118.9 138.1 122.9 141.6 122.9 141.6 126.6 133.3 126.6 133.3 108.2"/>
        <rect class="cls-1" x="143" y="108.2" width="4.8" height="18.4"/>
        <polygon class="cls-1" points="160.4 108.2 160.4 126.6 156.2 126.6 153.7 118.3 153.7 126.6 149.7 126.6 149.7 108.2 153.7 108.2 156.4 116.5 156.4 108.2 160.4 108.2"/>
        <rect class="cls-1" x="162.3" y="108.2" width="4.8" height="18.4"/>
        <path class="cls-1" d="M180,115h-4.8v-1.7c0-1.1,0-1.7-.1-2,0-.3-.3-.4-.6-.4s-.5.1-.6.3-.2.8-.2,1.8v8.8c0,.8,0,1.4.2,1.6.1.3.3.4.6.4s.6-.1.7-.4.2-.9.2-1.7v-2.2h-1v-2.8h5.6v9.9h-3l-.4-1.3c-.3.6-.7,1-1.2,1.3-.5.3-1.1.4-1.8.4s-1.6-.2-2.3-.6c-.7-.4-1.2-.9-1.6-1.4-.4-.6-.6-1.2-.7-1.8,0-.6-.1-1.6-.1-2.8v-5.5c0-1.8,0-3,.3-3.8s.7-1.5,1.6-2.2c.9-.7,2.1-1,3.5-1s2.6.3,3.5.9,1.5,1.3,1.8,2.1c.3.8.4,1.9.4,3.4v.8Z"/>
        <rect class="cls-1" x="181.8" y="108.2" width="4.8" height="18.4"/>
        <polygon class="cls-1" points="199.2 108.2 199.2 126.6 195 126.6 192.6 118.3 192.6 126.6 188.6 126.6 188.6 108.2 192.6 108.2 195.2 116.5 195.2 108.2 199.2 108.2"/>
        <path class="cls-1" d="M212.1,115h-4.8v-1.7c0-1.1,0-1.7-.1-2,0-.3-.3-.4-.6-.4s-.5.1-.6.3-.2.8-.2,1.8v8.8c0,.8,0,1.4.2,1.6.1.3.3.4.6.4s.6-.1.7-.4.2-.9.2-1.7v-2.2h-1v-2.8h5.6v9.9h-3l-.4-1.3c-.3.6-.7,1-1.2,1.3-.5.3-1.1.4-1.8.4s-1.6-.2-2.3-.6c-.7-.4-1.2-.9-1.6-1.4-.4-.6-.6-1.2-.7-1.8,0-.6-.1-1.6-.1-2.8v-5.5c0-1.8,0-3,.3-3.8s.7-1.5,1.6-2.2c.9-.7,2.1-1,3.5-1s2.6.3,3.5.9,1.5,1.3,1.8,2.1c.3.8.4,1.9.4,3.4v.8Z"/>
        <rect class="cls-1" x="223.2" y="106" width="2.5" height="21.4"/>
        <path class="cls-1" d="M247.7,115h-4.8v-1.7c0-1.1,0-1.7-.1-2,0-.3-.3-.4-.6-.4s-.5.1-.6.3-.2.8-.2,1.8v8.8c0,.8,0,1.4.2,1.6.1.3.3.4.6.4s.6-.1.7-.4.2-.9.2-1.7v-2.2h-1v-2.8h5.6v9.9h-3l-.4-1.3c-.3.6-.7,1-1.2,1.3-.5.3-1.1.4-1.8.4s-1.6-.2-2.3-.6c-.7-.4-1.2-.9-1.6-1.4-.4-.6-.6-1.2-.7-1.8,0-.6-.1-1.6-.1-2.8v-5.5c0-1.8,0-3,.3-3.8s.7-1.5,1.6-2.2c.9-.7,2.1-1,3.5-1s2.6.3,3.5.9,1.5,1.3,1.8,2.1.4,1.9.4,3.4v.8Z"/>
        <polygon class="cls-1" points="249.5 108.2 257.5 108.2 257.5 111.9 254.3 111.9 254.3 115.4 257.3 115.4 257.3 118.9 254.3 118.9 254.3 122.9 257.8 122.9 257.8 126.6 249.5 126.6 249.5 108.2"/>
        <path class="cls-1" d="M270.5,108.2l-2.4,18.4h-7.3l-2.8-18.4h5c.6,5.1,1,9.4,1.3,12.9.2-3.5.5-6.7.8-9.4l.3-3.4s5,0,5,0Z"/>
        <polygon class="cls-1" points="271.3 108.2 279.3 108.2 279.3 111.9 276.1 111.9 276.1 115.4 279.1 115.4 279.1 118.9 276.1 118.9 276.1 122.9 279.6 122.9 279.6 126.6 271.3 126.6 271.3 108.2"/>
        <polygon class="cls-1" points="285.7 108.2 285.7 122.9 288.6 122.9 288.6 126.6 281 126.6 281 108.2 285.7 108.2"/>
        <path class="cls-1" d="M289.8,108.2h4.8c1.5,0,2.6.1,3.4.4.8.2,1.4.7,1.9,1.4.5.7.7,1.9.7,3.5s-.2,1.8-.5,2.2c-.3.4-1,.8-2,1,1.1.2,1.9.7,2.3,1.2.4.6.6,1.5.6,2.7v1.7c0,1.2-.1,2.2-.4,2.8-.3.6-.7,1-1.4,1.2-.6.2-1.9.3-3.8.3h-5.5v-18.4h0ZM294.6,111.4v4.1c.2,0,.4,0,.5,0,.5,0,.8-.1.9-.3.1-.2.2-.9.2-2s0-1-.2-1.2c-.1-.2-.2-.4-.4-.4-.2,0-.5,0-1-.1M294.6,118.3v5.1c.7,0,1.1-.1,1.3-.3.2-.2.3-.7.3-1.4v-1.7c0-.8,0-1.3-.2-1.4s-.6-.3-1.3-.3"/>
        <polygon class="cls-1" points="302.6 108.2 310.6 108.2 310.6 111.9 307.4 111.9 307.4 115.4 310.4 115.4 310.4 118.9 307.4 118.9 307.4 122.9 310.9 122.9 310.9 126.6 302.6 126.6 302.6 108.2"/>
        <polygon class="cls-1" points="323.3 108.2 323.3 126.6 318.5 126.6 318.5 118.9 317.1 118.9 317.1 126.6 312.3 126.6 312.3 108.2 317.1 108.2 317.1 114.8 318.5 114.8 318.5 108.2 323.3 108.2"/>
        <polygon class="cls-1" points="325.2 108.2 333.2 108.2 333.2 111.9 330 111.9 330 115.4 333 115.4 333 118.9 330 118.9 330 122.9 333.5 122.9 333.5 126.6 325.2 126.6 325.2 108.2"/>
        <polygon class="cls-1" points="334.8 108.2 342.8 108.2 342.8 111.9 339.6 111.9 339.6 115.4 342.6 115.4 342.6 118.9 339.6 118.9 339.6 122.9 343.1 122.9 343.1 126.6 334.8 126.6 334.8 108.2"/>
        <path class="cls-1" d="M344.5,108.2h3.4c2.3,0,3.8,0,4.6.3.8.2,1.5.6,2,1.3.5.7.8,1.9.8,3.4s-.2,2.4-.5,2.9c-.4.5-1.1.8-2.1.9.9.2,1.6.6,1.9.9.3.4.5.8.6,1.1,0,.3.1,1.2.1,2.7v4.9h-4.4v-6.1c0-1,0-1.6-.2-1.8-.2-.2-.6-.4-1.2-.4v8.3h-4.8v-18.4h0ZM349.3,111.4v4.1c.5,0,.9,0,1.1-.2.2-.1.3-.6.3-1.4v-1c0-.6-.1-1-.3-1.1-.2-.2-.6-.3-1.1-.3"/>
        <rect class="cls-1" x="366.5" y="106" width="2.5" height="21.4"/>
        <path class="cls-1" d="M380,108.2h3.4c2.3,0,3.8,0,4.6.3.8.2,1.5.6,2,1.3.5.7.8,1.9.8,3.4s-.2,2.4-.5,2.9c-.4.5-1.1.8-2.1.9.9.2,1.6.6,1.9.9.3.4.5.8.6,1.1,0,.3.1,1.2.1,2.7v4.9h-4.4v-6.1c0-1,0-1.6-.2-1.8-.2-.2-.6-.4-1.2-.4v8.3h-4.8v-18.4h0ZM384.8,111.4v4.1c.5,0,.9,0,1.1-.2.2-.1.3-.6.3-1.4v-1c0-.6-.1-1-.3-1.1-.2-.2-.6-.3-1.1-.3"/>
        <rect class="cls-1" x="392.6" y="108.2" width="4.8" height="18.4"/>
        <path class="cls-1" d="M410.2,119c0,1.8,0,3.2-.1,3.9,0,.8-.4,1.5-.8,2.1-.5.6-1.1,1.1-1.9,1.5-.8.3-1.7.5-2.7.5s-1.9-.2-2.7-.5-1.4-.8-1.9-1.4-.8-1.3-.9-2.1-.1-2.1-.1-4v-3.1c0-1.8,0-3.2.1-3.9s.4-1.5.8-2.1c.5-.6,1.1-1.1,1.9-1.5.8-.3,1.7-.5,2.7-.5s1.9.2,2.7.5c.8.3,1.4.8,1.9,1.4.5.6.8,1.3.9,2.1s.1,2.1.1,4v3.1ZM405.4,112.9c0-.9,0-1.4-.1-1.6,0-.2-.3-.4-.6-.4s-.4,0-.6.3c-.1.2-.2.8-.2,1.7v8.6c0,1.1,0,1.7.1,2s.3.4.6.4.5-.1.6-.4c0-.3.1-1,.1-2.1v-8.5Z"/>
        <path class="cls-1" d="M422.9,119c0,1.8,0,3.2-.1,3.9,0,.8-.4,1.5-.8,2.1-.5.6-1.1,1.1-1.9,1.5-.8.3-1.7.5-2.7.5s-1.9-.2-2.7-.5-1.4-.8-1.9-1.4-.8-1.3-.9-2.1-.1-2.1-.1-4v-3.1c0-1.8,0-3.2.1-3.9s.4-1.5.8-2.1c.5-.6,1.1-1.1,1.9-1.5.8-.3,1.7-.5,2.7-.5s1.9.2,2.7.5c.8.3,1.4.8,1.9,1.4.5.6.8,1.3.9,2.1s.1,2.1.1,4v3.1ZM418.1,112.9c0-.9,0-1.4-.1-1.6,0-.2-.3-.4-.6-.4s-.4,0-.6.3c-.1.2-.2.8-.2,1.7v8.6c0,1.1,0,1.7.1,2s.3.4.6.4.5-.1.6-.4.1-1,.1-2.1v-8.5Z"/>
        <polygon class="cls-1" points="429.5 108.2 429.5 122.9 432.4 122.9 432.4 126.6 424.7 126.6 424.7 108.2 429.5 108.2"/>
        <path class="cls-1" d="M433.6,108.2h4.8c1.5,0,2.6.1,3.4.4.8.2,1.4.7,1.9,1.4.5.7.7,1.9.7,3.5s-.2,1.8-.5,2.2c-.3.4-1,.8-2,1,1.1.2,1.9.7,2.3,1.2.4.6.6,1.5.6,2.7v1.7c0,1.2-.1,2.2-.4,2.8-.3.6-.7,1-1.4,1.2-.6.2-1.9.3-3.8.3h-5.5v-18.4h0ZM438.4,111.4v4.1c.2,0,.4,0,.5,0,.5,0,.8-.1.9-.3.1-.2.2-.9.2-2s0-1-.2-1.2c-.1-.2-.2-.4-.4-.4-.2,0-.5,0-1-.1M438.4,118.3v5.1c.7,0,1.1-.1,1.3-.3.2-.2.3-.7.3-1.4v-1.7c0-.8,0-1.3-.2-1.4s-.6-.3-1.3-.3"/>
        <polygon class="cls-1" points="446.4 108.2 454.4 108.2 454.4 111.9 451.2 111.9 451.2 115.4 454.2 115.4 454.2 118.9 451.2 118.9 451.2 122.9 454.7 122.9 454.7 126.6 446.4 126.6 446.4 108.2"/>
        <polygon class="cls-1" points="467.1 108.2 467.1 126.6 462.3 126.6 462.3 118.9 460.9 118.9 460.9 126.6 456.1 126.6 456.1 108.2 460.9 108.2 460.9 114.8 462.3 114.8 462.3 108.2 467.1 108.2"/>
        <polygon class="cls-1" points="469 108.2 477 108.2 477 111.9 473.8 111.9 473.8 115.4 476.8 115.4 476.8 118.9 473.8 118.9 473.8 122.9 477.3 122.9 477.3 126.6 469 126.6 469 108.2"/>
        <polygon class="cls-1" points="478.7 108.2 486.7 108.2 486.7 111.9 483.5 111.9 483.5 115.4 486.5 115.4 486.5 118.9 483.5 118.9 483.5 122.9 487 122.9 487 126.6 478.7 126.6 478.7 108.2"/>
        <path class="cls-1" d="M488.4,108.2h3.4c2.3,0,3.8,0,4.6.3.8.2,1.5.6,2,1.3.5.7.8,1.9.8,3.4s-.2,2.4-.5,2.9c-.4.5-1.1.8-2.1.9.9.2,1.6.6,1.9.9.3.4.5.8.6,1.1,0,.3.1,1.2.1,2.7v4.9h-4.4v-6.1c0-1,0-1.6-.2-1.8-.2-.2-.6-.4-1.2-.4v8.3h-4.8v-18.4h0ZM493.2,111.4v4.1c.5,0,.9,0,1.1-.2.2-.1.3-.6.3-1.4v-1c0-.6-.1-1-.3-1.1-.2-.2-.6-.3-1.1-.3"/>
      </g>
    </g>
  </g>
</svg>