<svg xmlns="http://www.w3.org/2000/svg" width="180" height="48" viewBox="0 0 180 48" role="img" aria-labelledby="title">
  <title id="title">Rimato</title>
  <rect width="180" height="48" rx="12" fill="#1f3b73"/>
  <path d="M22 31V17h8.6c3.35 0 5.46 1.92 5.46 4.86 0 2.23-1.28 3.8-3.14 4.44L37 31h-3.92l-3.4-4.26h-3.68V31H22zm4.12-7.12h3.88c1.48 0 2.28-.84 2.28-1.97 0-1.14-.8-1.98-2.28-1.98h-3.88v3.95z" fill="#f9b233"/>
  <path d="M51.38 31.3c-4.56 0-7.78-3.04-7.78-7.8 0-4.75 3.22-7.79 7.78-7.79 4.58 0 7.78 3.04 7.78 7.79 0 4.76-3.2 7.8-7.78 7.8zm0-3.36c2.3 0 3.88-1.72 3.88-4.44 0-2.7-1.58-4.41-3.88-4.41-2.28 0-3.88 1.71-3.88 4.41 0 2.72 1.6 4.44 3.88 4.44z" fill="#fff"/>
  <path d="M69.12 31.12c-2.96 0-4.9-1.62-5.7-3.58l3.38-1.48c.5 1.12 1.46 1.82 2.58 1.82 1.54 0 2.46-.84 2.46-2.84V17h3.96v8.12c0 3.98-2.38 6-6.68 6z" fill="#fff"/>
  <path d="M84.66 31.12c-2.96 0-4.9-1.62-5.7-3.58l3.38-1.48c.5 1.12 1.46 1.82 2.58 1.82 1.54 0 2.46-.84 2.46-2.84V17h3.96v8.12c0 3.98-2.38 6-6.68 6z" fill="#fff"/>
  <path d="M94.48 31V17h3.96v14h-3.96z" fill="#fff"/>
  <path d="M113.36 31.12c-4.66 0-7.82-3.14-7.82-7.92 0-4.76 3.18-7.92 7.82-7.92 2.96 0 5.34 1.22 6.6 3.38l-3.24 1.8c-.56-1.06-1.72-1.78-3.36-1.78-2.22 0-3.8 1.62-3.8 4.52 0 2.9 1.58 4.52 3.8 4.52 1.64 0 2.8-.72 3.36-1.78l3.24 1.8c-1.26 2.16-3.64 3.38-6.6 3.38z" fill="#fff"/>
  <path d="M132.52 31.3c-4.56 0-7.78-3.04-7.78-7.8 0-4.75 3.22-7.79 7.78-7.79 4.58 0 7.78 3.04 7.78 7.79 0 4.76-3.2 7.8-7.78 7.8zm0-3.36c2.3 0 3.88-1.72 3.88-4.44 0-2.7-1.58-4.41-3.88-4.41-2.28 0-3.88 1.71-3.88 4.41 0 2.72 1.6 4.44 3.88 4.44z" fill="#fff"/>
  <path d="M142.92 31 150.26 17h4.2l7.34 14h-4.4l-1.3-2.64h-7.4L147.38 31h-4.46zm6.5-5.18h4.44l-2.2-4.46-2.24 4.46z" fill="#fff"/>
</svg>
<svg xmlns="http://www.w3.org/2000/svg" width="180" height="48" viewBox="0 0 180 48" role="img" aria-labelledby="title">
  <title id="title">Rimato</title>
  <rect width="180" height="48" rx="12" fill="#1f3b73"/>
  <path d="M22 31V17h8.6c3.35 0 5.46 1.92 5.46 4.86 0 2.23-1.28 3.8-3.14 4.44L37 31h-3.92l-3.4-4.26h-3.68V31H22zm4.12-7.12h3.88c1.48 0 2.28-.84 2.28-1.97 0-1.14-.8-1.98-2.28-1.98h-3.88v3.95z" fill="#f9b233"/>
  <path d="M51.38 31.3c-4.56 0-7.78-3.04-7.78-7.8 0-4.75 3.22-7.79 7.78-7.79 4.58 0 7.78 3.04 7.78 7.79 0 4.76-3.2 7.8-7.78 7.8zm0-3.36c2.3 0 3.88-1.72 3.88-4.44 0-2.7-1.58-4.41-3.88-4.41-2.28 0-3.88 1.71-3.88 4.41 0 2.72 1.6 4.44 3.88 4.44z" fill="#fff"/>
  <path d="M69.12 31.12c-2.96 0-4.9-1.62-5.7-3.58l3.38-1.48c.5 1.12 1.46 1.82 2.58 1.82 1.54 0 2.46-.84 2.46-2.84V17h3.96v8.12c0 3.98-2.38 6-6.68 6z" fill="#fff"/>
  <path d="M84.66 31.12c-2.96 0-4.9-1.62-5.7-3.58l3.38-1.48c.5 1.12 1.46 1.82 2.58 1.82 1.54 0 2.46-.84 2.46-2.84V17h3.96v8.12c0 3.98-2.38 6-6.68 6z" fill="#fff"/>
  <path d="M94.48 31V17h3.96v14h-3.96z" fill="#fff"/>
  <path d="M113.36 31.12c-4.66 0-7.82-3.14-7.82-7.92 0-4.76 3.18-7.92 7.82-7.92 2.96 0 5.34 1.22 6.6 3.38l-3.24 1.8c-.56-1.06-1.72-1.78-3.36-1.78-2.22 0-3.8 1.62-3.8 4.52 0 2.9 1.58 4.52 3.8 4.52 1.64 0 2.8-.72 3.36-1.78l3.24 1.8c-1.26 2.16-3.64 3.38-6.6 3.38z" fill="#fff"/>
  <path d="M132.52 31.3c-4.56 0-7.78-3.04-7.78-7.8 0-4.75 3.22-7.79 7.78-7.79 4.58 0 7.78 3.04 7.78 7.79 0 4.76-3.2 7.8-7.78 7.8zm0-3.36c2.3 0 3.88-1.72 3.88-4.44 0-2.7-1.58-4.41-3.88-4.41-2.28 0-3.88 1.71-3.88 4.41 0 2.72 1.6 4.44 3.88 4.44z" fill="#fff"/>
  <path d="M142.92 31 150.26 17h4.2l7.34 14h-4.4l-1.3-2.64h-7.4L147.38 31h-4.46zm6.5-5.18h4.44l-2.2-4.46-2.24 4.46z" fill="#fff"/>
</svg>

