<?xml version="1.0" encoding="UTF-8"?>
<svg id="Laag_2" xmlns="http://www.w3.org/2000/svg" xmlns:xlink="http://www.w3.org/1999/xlink" viewBox="0 0 95.05 99.01">
  <defs>
    <style>
      .cls-1 {
        fill: url(#Naamloos_verloop_3-3);
      }

      .cls-2 {
        fill: url(#Naamloos_verloop_3-2);
      }

      .cls-3 {
        fill: url(#Naamloos_verloop_3);
      }
    </style>
    <linearGradient id="Naamloos_verloop_3" data-name="Naamloos verloop 3" x1="70.95" y1="-699.15" x2="-5.55" y2="-715.95" gradientTransform="translate(0 -666) scale(1 -1)" gradientUnits="userSpaceOnUse">
      <stop offset=".24" stop-color="#42b38e"/>
      <stop offset=".46" stop-color="#40b08c"/>
      <stop offset=".58" stop-color="#3da887"/>
      <stop offset=".68" stop-color="#369a7f"/>
      <stop offset=".77" stop-color="#2e8674"/>
      <stop offset=".85" stop-color="#226d65"/>
      <stop offset=".92" stop-color="#144e52"/>
      <stop offset=".99" stop-color="#03293d"/>
      <stop offset="1" stop-color="#002138"/>
    </linearGradient>
    <linearGradient id="Naamloos_verloop_3-2" data-name="Naamloos verloop 3" x1="75.98" y1="-720.67" x2="-.39" y2="-737.43" xlink:href="#Naamloos_verloop_3"/>
    <linearGradient id="Naamloos_verloop_3-3" data-name="Naamloos verloop 3" x1="79.37" y1="-736.35" x2="3.02" y2="-753.11" xlink:href="#Naamloos_verloop_3"/>
  </defs>
  <g id="Laag_1-2" data-name="Laag_1">
    <path class="cls-3" d="M77.93,27.71L95.05,1.79C23.6-8.45-15.19,26.16,5.59,83.53-.28,44.96,23.58,22.87,77.93,27.71Z"/>
    <path class="cls-2" d="M10.76,91.36c2.35-30.82,20.47-39.92,50.39-38.25l9.7-14.69C31.08,34.39,3.39,51.51,10.76,91.36Z"/>
    <path class="cls-1" d="M15.18,99c5.16-17.6,15.31-25.79,32.21-24.1l7.04-10.65c-23.05-2.81-39.28,7.95-39.25,34.76h0Z"/>
  </g>
</svg>