<?xml version="1.0" encoding="UTF-8"?> <svg xmlns="http://www.w3.org/2000/svg" xmlns:xlink="http://www.w3.org/1999/xlink" id="Laag_1" viewBox="0 0 685.98 100.49"><defs><style>.cls-1{fill:#002138;}.cls-2{fill:url(#Dégradé_CMJN_3);}.cls-3{fill:url(#Naamloos_verloop_3);}.cls-4{fill:url(#Dégradé_CMJN_3-2);}</style><linearGradient id="Naamloos_verloop_3" x1="70.95" y1="33.15" x2="-5.55" y2="49.95" gradientUnits="userSpaceOnUse"><stop offset=".24" stop-color="#42b38e"></stop><stop offset=".46" stop-color="#40b08c"></stop><stop offset=".58" stop-color="#3da887"></stop><stop offset=".68" stop-color="#369a7f"></stop><stop offset=".77" stop-color="#2e8674"></stop><stop offset=".85" stop-color="#226d65"></stop><stop offset=".92" stop-color="#144e52"></stop><stop offset=".99" stop-color="#03293d"></stop><stop offset="1" stop-color="#002138"></stop></linearGradient><linearGradient id="Dégradé_CMJN_3" x1="75.98" y1="54.67" x2="-.39" y2="71.43" gradientUnits="userSpaceOnUse"><stop offset=".24" stop-color="#42b38e"></stop><stop offset=".46" stop-color="#40b08c"></stop><stop offset=".58" stop-color="#3da887"></stop><stop offset=".68" stop-color="#369a7f"></stop><stop offset=".77" stop-color="#2e8674"></stop><stop offset=".85" stop-color="#226d65"></stop><stop offset=".92" stop-color="#144e52"></stop><stop offset=".99" stop-color="#03293d"></stop><stop offset="1" stop-color="#002138"></stop></linearGradient><linearGradient id="Dégradé_CMJN_3-2" x1="79.37" y1="70.33" x2="3.02" y2="87.09" xlink:href="#Dégradé_CMJN_3"></linearGradient></defs><path class="cls-3" d="m77.93,27.71L95.05,1.79C23.6-8.45-15.19,26.16,5.59,83.53-.28,44.96,23.58,22.87,77.93,27.71Z"></path><path class="cls-2" d="m10.76,91.36c2.35-30.82,20.47-39.92,50.39-38.25l9.7-14.69C31.08,34.39,3.39,51.51,10.76,91.36Z"></path><path class="cls-4" d="m15.18,99c5.16-17.6,15.31-25.79,32.21-24.1l7.04-10.65c-23.05-2.81-39.28,7.95-39.25,34.76Z"></path><path class="cls-1" d="m93.87,95.34h-4.85l-1.09,3.03h-1.57l4.42-11.58h1.34l4.43,11.58h-1.57l-1.11-3.03Zm-4.39-1.25h3.94l-1.97-5.42-1.96,5.42Z"></path><path class="cls-1" d="m109.52,98.37h-1.53l-5.83-8.92v8.92h-1.53v-11.58h1.53l5.84,8.96v-8.96h1.52v11.58Z"></path><path class="cls-1" d="m128.03,93.46h-4.39v2.77h5.18v2.15h-7.98v-11.58h7.99v2.15h-5.2v2.44h4.39v2.07Z"></path><path class="cls-1" d="m142.3,92.82c0,1.07-.18,2.01-.53,2.8s-.85,1.44-1.47,1.92l1.87,1.48-1.73,1.46-2.49-2c-.23.03-.47.05-.7.05-.99,0-1.86-.23-2.62-.68-.76-.46-1.36-1.11-1.78-1.96-.43-.85-.65-1.82-.66-2.93v-.61c0-1.14.21-2.14.62-3.01.42-.86,1.01-1.53,1.78-2,.77-.47,1.65-.71,2.65-.71s1.86.23,2.62.7,1.37,1.13,1.79,1.99c.43.86.64,1.85.65,2.96v.53Zm-2.84-.48c0-1.15-.19-2.02-.58-2.62-.38-.6-.93-.89-1.65-.89s-1.29.29-1.66.88c-.37.59-.56,1.45-.56,2.58v.53c0,1.14.19,2.01.56,2.62.38.61.94.91,1.68.91s1.26-.3,1.63-.9.57-1.46.58-2.58v-.53Z"></path><path class="cls-1" d="m155.33,86.79v7.58c0,.86-.18,1.6-.55,2.23-.37.63-.89,1.11-1.57,1.44s-1.49.49-2.43.49c-1.41,0-2.52-.37-3.33-1.1-.81-.73-1.22-1.73-1.24-3.01v-7.63h2.81v7.69c.03,1.27.62,1.9,1.77,1.9.58,0,1.01-.16,1.31-.48.3-.32.45-.84.45-1.55v-7.56h2.79Z"></path><path class="cls-1" d="m166,96.21h-3.82l-.67,2.16h-2.98l4.25-11.58h2.62l4.28,11.58h-3l-.68-2.16Zm-3.16-2.15h2.49l-1.25-4.02-1.24,4.02Z"></path><path class="cls-1" d="m182.71,98.37h-2.78l-4.1-7.2v7.2h-2.79v-11.58h2.79l4.09,7.2v-7.2h2.78v11.58Z"></path><path class="cls-1" d="m192.97,95.29c0-.41-.14-.73-.43-.95-.29-.23-.8-.46-1.52-.71-.73-.24-1.32-.48-1.78-.71-1.5-.74-2.25-1.75-2.25-3.04,0-.64.19-1.21.56-1.7.37-.49.9-.87,1.59-1.14.68-.27,1.45-.41,2.31-.41s1.58.15,2.24.45c.66.3,1.17.72,1.54,1.27.37.55.55,1.18.55,1.88h-2.78c0-.47-.14-.84-.43-1.1-.29-.26-.68-.39-1.17-.39s-.89.11-1.18.33c-.29.22-.43.5-.43.84,0,.3.16.57.48.81.32.24.88.49,1.68.75.8.26,1.46.53,1.97.83,1.25.72,1.88,1.72,1.88,2.98,0,1.01-.38,1.81-1.15,2.39-.76.58-1.81.87-3.14.87-.94,0-1.79-.17-2.55-.5-.76-.34-1.33-.8-1.72-1.38s-.58-1.26-.58-2.02h2.8c0,.62.16,1.08.48,1.37.32.29.84.44,1.56.44.46,0,.83-.1,1.09-.3.27-.2.4-.48.4-.84Z"></path><path class="cls-1" d="m215.28,94.7c-.14,1.22-.6,2.17-1.36,2.83-.76.67-1.77,1-3.03,1-1.37,0-2.46-.49-3.29-1.47-.82-.98-1.24-2.29-1.24-3.94v-1.11c0-1.08.19-2.02.58-2.84.38-.82.93-1.44,1.63-1.88.7-.44,1.52-.66,2.45-.66,1.23,0,2.22.34,2.96,1.03.74.69,1.17,1.64,1.3,2.85h-1.53c-.13-.93-.42-1.59-.86-2.01-.44-.41-1.06-.62-1.86-.62-.98,0-1.74.36-2.29,1.08-.55.72-.83,1.75-.83,3.08v1.12c0,1.26.26,2.26.79,3s1.26,1.11,2.2,1.11c.85,0,1.5-.19,1.95-.58s.75-1.05.9-2.01h1.53Z"></path><path class="cls-1" d="m228.79,92.96c0,1.13-.19,2.12-.57,2.97-.38.85-.92,1.49-1.62,1.94-.7.45-1.52.67-2.45.67s-1.72-.22-2.43-.67-1.25-1.09-1.64-1.92-.59-1.79-.6-2.88v-.84c0-1.11.19-2.1.58-2.95.39-.85.93-1.51,1.64-1.96.71-.45,1.52-.68,2.43-.68s1.75.22,2.45.67,1.25,1.1,1.63,1.95c.38.85.57,1.84.57,2.97v.73Zm-1.52-.75c0-1.37-.28-2.43-.83-3.16s-1.32-1.1-2.31-1.1-1.72.37-2.28,1.1c-.55.73-.84,1.75-.86,3.06v.85c0,1.33.28,2.38.84,3.14.56.76,1.33,1.14,2.31,1.14s1.75-.36,2.29-1.08c.54-.72.82-1.75.83-3.09v-.86Z"></path><path class="cls-1" d="m235.58,86.79l3.78,9.45,3.78-9.45h1.98v11.58h-1.53v-4.51l.14-4.87-3.8,9.37h-1.17l-3.79-9.35.15,4.84v4.51h-1.53v-11.58h1.97Z"></path><path class="cls-1" d="m251.87,93.84v4.53h-1.53v-11.58h4.27c1.27,0,2.26.32,2.98.97.72.65,1.08,1.5,1.08,2.57,0,1.12-.35,1.99-1.05,2.6-.7.61-1.71.91-3.02.91h-2.73Zm0-1.25h2.74c.82,0,1.44-.19,1.88-.58.43-.38.65-.94.65-1.67,0-.69-.22-1.24-.65-1.66-.43-.41-1.03-.63-1.79-.65h-2.83v4.55Z"></path><path class="cls-1" d="m268.44,95.34h-4.85l-1.09,3.03h-1.57l4.42-11.58h1.34l4.43,11.58h-1.57l-1.11-3.03Zm-4.39-1.25h3.94l-1.97-5.42-1.96,5.42Z"></path><path class="cls-1" d="m284.09,98.37h-1.53l-5.83-8.92v8.92h-1.53v-11.58h1.53l5.84,8.96v-8.96h1.52v11.58Z"></path><path class="cls-1" d="m292.63,92.61l3.02-5.81h1.73l-3.99,7.26v4.32h-1.53v-4.32l-3.99-7.26h1.75l3.01,5.81Z"></path><path class="cls-1" d="m94.59,45.23v7.06h23.33v7.46h-23.33v7.86h27.6v7.46h-35.58v-37.29h35.58v7.46h-27.6Z"></path><path class="cls-1" d="m138.47,37.77v29.84h23.33v7.46h-31.31v-37.29h7.98Z"></path><path class="cls-1" d="m176.4,45.23v7.06h23.33v7.46h-23.33v7.86h27.6v7.46h-35.58v-37.29h35.58v7.46h-27.6Z"></path><path class="cls-1" d="m252.14,60.6c-1.89,8.77-9.71,15.34-20.58,15.34h-2.79c-12.54,0-21.04-8.74-21.04-19.53s8.49-19.53,21.04-19.53h2.79c10.87,0,18.69,6.57,20.58,15.34h-8.31c-1.73-4.47-6.3-7.35-12.27-7.35h-2.79c-7.68,0-13.05,4.74-13.05,11.54s5.36,11.54,13.05,11.54h2.79c5.98,0,10.54-2.88,12.27-7.35h8.31Z"></path><path class="cls-1" d="m291.95,45.83h-14.61v29.22h-7.97v-29.22h-14.61v-7.97h37.19v7.97Z"></path><path class="cls-1" d="m317.27,60h-10.66v15.19h-7.97v-37.19h25.79c5.67,0,10.4,4.31,10.95,9.95.54,5.64-3.29,10.77-8.85,11.85l9.27,15.39h-9.36l-9.17-15.19Zm-10.66-7.52h17.82c1.26.02,2.43-.64,3.06-1.72.64-1.09.64-2.43,0-3.51-.63-1.09-1.81-1.74-3.06-1.72h-17.82v6.96Z"></path><path class="cls-1" d="m385.53,56.43c0,10.76-8.47,19.47-20.98,19.47h-2.78c-12.51,0-20.98-8.72-20.98-19.47s8.47-19.47,20.98-19.47h2.78c12.51,0,20.98,8.72,20.98,19.47Zm-7.97,0c0-6.78-5.35-11.5-13.01-11.5h-2.78c-7.66,0-13.01,4.73-13.01,11.5s5.35,11.5,13.01,11.5h2.78c7.66,0,13.01-4.73,13.01-11.5Z"></path><path class="cls-1" d="m430.35,48.84c0,6.07-4.93,11-11,11h-17.82v15.19h-7.97v-37.19h25.79c6.07,0,11,4.93,11,11Zm-11,3.48c1.26.02,2.43-.64,3.06-1.72.64-1.09.64-2.43,0-3.51-.63-1.09-1.81-1.74-3.06-1.72h-17.82v6.96h17.82Z"></path><path class="cls-1" d="m455.44,60h-10.66v15.19h-7.97v-37.19h25.79c5.67,0,10.41,4.31,10.95,9.95.54,5.64-3.29,10.77-8.85,11.85l9.27,15.39h-9.36l-9.17-15.19Zm-10.66-7.52h17.82c1.26.02,2.43-.64,3.06-1.72.63-1.09.63-2.43,0-3.51-.64-1.09-1.81-1.74-3.06-1.72h-17.82v6.96Z"></path><path class="cls-1" d="m522.79,56.43c0,10.76-8.47,19.47-20.98,19.47h-2.79c-12.51,0-20.98-8.72-20.98-19.47s8.47-19.47,20.98-19.47h2.79c12.51,0,20.98,8.72,20.98,19.47Zm-7.97,0c0-6.78-5.35-11.5-13.01-11.5h-2.79c-7.66,0-13.01,4.73-13.01,11.5s5.35,11.5,13.01,11.5h2.79c7.66,0,13.01-4.73,13.01-11.5Z"></path><path class="cls-1" d="m554.15,37.79v21.05c.21,4.37-1.44,8.63-4.53,11.73-3.1,3.09-7.35,4.74-11.72,4.53h-14.11v-7.46h14.11c4.85,0,8.26-3.46,8.26-8.79v-21.06h8Z"></path><path class="cls-1" d="m570.43,45.23v7.06h23.33v7.46h-23.33v7.86h27.6v7.46h-35.58v-37.29h35.58v7.46h-27.6Z"></path><path class="cls-1" d="m646.18,60.6c-1.89,8.77-9.71,15.34-20.58,15.34h-2.79c-12.54,0-21.04-8.74-21.04-19.53s8.49-19.53,21.04-19.53h2.79c10.87,0,18.69,6.57,20.58,15.34h-8.31c-1.73-4.47-6.3-7.35-12.27-7.35h-2.79c-7.68,0-13.05,4.74-13.05,11.54s5.36,11.54,13.05,11.54h2.79c5.98,0,10.54-2.88,12.27-7.35h8.31Z"></path><path class="cls-1" d="m685.98,45.83h-14.61v29.22h-7.97v-29.22h-14.61v-7.97h37.19v7.97Z"></path></svg> 