<?xml version="1.0" encoding="UTF-8"?>
<svg xmlns="http://www.w3.org/2000/svg" xmlns:xlink="http://www.w3.org/1999/xlink" version="1.1" viewBox="0 0 686 100.5">
  <defs>
    <style>
      .cls-1 {
        fill: url(#Naamloos_verloop);
      }

      .cls-2 {
        fill: #fff;
      }

      .cls-3 {
        fill: url(#Naamloos_verloop_2);
      }

      .cls-4 {
        fill: url(#Naamloos_verloop_3);
      }
    </style>
    <linearGradient id="Naamloos_verloop" data-name="Naamloos verloop" x1="70.9" y1="68.9" x2="-5.6" y2="52.1" gradientTransform="translate(0 102) scale(1 -1)" gradientUnits="userSpaceOnUse">
      <stop offset=".2" stop-color="#42b38e"/>
      <stop offset=".5" stop-color="#40b08c"/>
      <stop offset=".6" stop-color="#3da887"/>
      <stop offset=".7" stop-color="#369a7f"/>
      <stop offset=".8" stop-color="#2e8674"/>
      <stop offset=".8" stop-color="#226d65"/>
      <stop offset=".9" stop-color="#144e52"/>
      <stop offset="1" stop-color="#03293d"/>
      <stop offset="1" stop-color="#002138"/>
    </linearGradient>
    <linearGradient id="Naamloos_verloop_2" data-name="Naamloos verloop 2" x1="76" y1="47.3" x2="-.4" y2="30.6" gradientTransform="translate(0 102) scale(1 -1)" gradientUnits="userSpaceOnUse">
      <stop offset=".2" stop-color="#42b38e"/>
      <stop offset=".5" stop-color="#40b08c"/>
      <stop offset=".6" stop-color="#3da887"/>
      <stop offset=".7" stop-color="#369a7f"/>
      <stop offset=".8" stop-color="#2e8674"/>
      <stop offset=".8" stop-color="#226d65"/>
      <stop offset=".9" stop-color="#144e52"/>
      <stop offset="1" stop-color="#03293d"/>
      <stop offset="1" stop-color="#002138"/>
    </linearGradient>
    <linearGradient id="Naamloos_verloop_3" data-name="Naamloos verloop 3" x1="79.4" y1="31.7" x2="3" y2="14.9" gradientTransform="translate(0 102) scale(1 -1)" gradientUnits="userSpaceOnUse">
      <stop offset=".2" stop-color="#42b38e"/>
      <stop offset=".5" stop-color="#40b08c"/>
      <stop offset=".6" stop-color="#3da887"/>
      <stop offset=".7" stop-color="#369a7f"/>
      <stop offset=".8" stop-color="#2e8674"/>
      <stop offset=".8" stop-color="#226d65"/>
      <stop offset=".9" stop-color="#144e52"/>
      <stop offset="1" stop-color="#03293d"/>
      <stop offset="1" stop-color="#002138"/>
    </linearGradient>
  </defs>
  <!-- Generator: Adobe Illustrator 28.7.10, SVG Export Plug-In . SVG Version: 1.2.0 Build 236)  -->
  <g>
    <g id="Laag_1">
      <path class="cls-1" d="M77.9,27.7L95.1,1.8C23.6-8.4-15.2,26.2,5.6,83.5-.3,45,23.6,22.9,77.9,27.7Z"/>
      <path class="cls-3" d="M10.8,91.4c2.4-30.8,20.5-39.9,50.4-38.2l9.7-14.7C31.1,34.4,3.4,51.5,10.8,91.4Z"/>
      <path class="cls-4" d="M15.2,99c5.2-17.6,15.3-25.8,32.2-24.1l7-10.7c-23-2.8-39.3,7.9-39.2,34.8h0Z"/>
      <path class="cls-2" d="M93.9,95.3h-4.8l-1.1,3h-1.6l4.4-11.6h1.3l4.4,11.6h-1.6l-1.1-3ZM89.5,94.1h3.9l-2-5.4-2,5.4h0Z"/>
      <path class="cls-2" d="M109.5,98.4h-1.5l-5.8-8.9v8.9h-1.5v-11.6h1.5l5.8,9v-9h1.5v11.6Z"/>
      <path class="cls-2" d="M128,93.5h-4.4v2.8h5.2v2.2h-8v-11.6h8v2.2h-5.2v2.4h4.4v2.1h0Z"/>
      <path class="cls-2" d="M142.3,92.8c0,1.1-.2,2-.5,2.8s-.9,1.4-1.5,1.9l1.9,1.5-1.7,1.5-2.5-2c-.2,0-.5,0-.7,0-1,0-1.9-.2-2.6-.7-.8-.5-1.4-1.1-1.8-2-.4-.8-.6-1.8-.7-2.9v-.6c0-1.1.2-2.1.6-3,.4-.9,1-1.5,1.8-2s1.6-.7,2.6-.7,1.9.2,2.6.7,1.4,1.1,1.8,2c.4.9.6,1.8.6,3v.5h0ZM139.5,92.3c0-1.2-.2-2-.6-2.6-.4-.6-.9-.9-1.6-.9s-1.3.3-1.7.9c-.4.6-.6,1.4-.6,2.6v.5c0,1.1.2,2,.6,2.6.4.6.9.9,1.7.9s1.3-.3,1.6-.9.6-1.5.6-2.6v-.5Z"/>
      <path class="cls-2" d="M155.3,86.8v7.6c0,.9-.2,1.6-.6,2.2-.4.6-.9,1.1-1.6,1.4s-1.5.5-2.4.5c-1.4,0-2.5-.4-3.3-1.1-.8-.7-1.2-1.7-1.2-3v-7.6h2.8v7.7c0,1.3.6,1.9,1.8,1.9s1-.2,1.3-.5.4-.8.4-1.6v-7.6h2.8,0Z"/>
      <path class="cls-2" d="M166,96.2h-3.8l-.7,2.2h-3l4.2-11.6h2.6l4.3,11.6h-3l-.7-2.2ZM162.8,94.1h2.5l-1.2-4-1.2,4Z"/>
      <path class="cls-2" d="M182.7,98.4h-2.8l-4.1-7.2v7.2h-2.8v-11.6h2.8l4.1,7.2v-7.2h2.8v11.6h0Z"/>
      <path class="cls-2" d="M193,95.3c0-.4-.1-.7-.4-.9-.3-.2-.8-.5-1.5-.7-.7-.2-1.3-.5-1.8-.7-1.5-.7-2.2-1.8-2.2-3s.2-1.2.6-1.7.9-.9,1.6-1.1c.7-.3,1.4-.4,2.3-.4s1.6.2,2.2.4c.7.3,1.2.7,1.5,1.3.4.6.6,1.2.6,1.9h-2.8c0-.5-.1-.8-.4-1.1s-.7-.4-1.2-.4-.9.1-1.2.3-.4.5-.4.8.2.6.5.8c.3.2.9.5,1.7.8.8.3,1.5.5,2,.8,1.2.7,1.9,1.7,1.9,3s-.4,1.8-1.1,2.4c-.8.6-1.8.9-3.1.9s-1.8-.2-2.6-.5c-.8-.3-1.3-.8-1.7-1.4s-.6-1.3-.6-2h2.8c0,.6.2,1.1.5,1.4.3.3.8.4,1.6.4s.8,0,1.1-.3c.3-.2.4-.5.4-.8h0Z"/>
      <path class="cls-2" d="M215.3,94.7c-.1,1.2-.6,2.2-1.4,2.8-.8.7-1.8,1-3,1s-2.5-.5-3.3-1.5c-.8-1-1.2-2.3-1.2-3.9v-1.1c0-1.1.2-2,.6-2.8.4-.8.9-1.4,1.6-1.9.7-.4,1.5-.7,2.4-.7s2.2.3,3,1,1.2,1.6,1.3,2.8h-1.5c-.1-.9-.4-1.6-.9-2-.4-.4-1.1-.6-1.9-.6s-1.7.4-2.3,1.1c-.6.7-.8,1.8-.8,3.1v1.1c0,1.3.3,2.3.8,3s1.3,1.1,2.2,1.1,1.5-.2,1.9-.6.8-1.1.9-2h1.5Z"/>
      <path class="cls-2" d="M228.8,93c0,1.1-.2,2.1-.6,3s-.9,1.5-1.6,1.9c-.7.4-1.5.7-2.4.7s-1.7-.2-2.4-.7-1.2-1.1-1.6-1.9-.6-1.8-.6-2.9v-.8c0-1.1.2-2.1.6-2.9s.9-1.5,1.6-2,1.5-.7,2.4-.7,1.8.2,2.4.7,1.2,1.1,1.6,1.9.6,1.8.6,3v.7h0ZM227.3,92.2c0-1.4-.3-2.4-.8-3.2s-1.3-1.1-2.3-1.1-1.7.4-2.3,1.1c-.6.7-.8,1.8-.9,3.1v.8c0,1.3.3,2.4.8,3.1s1.3,1.1,2.3,1.1,1.8-.4,2.3-1.1.8-1.8.8-3.1v-.9h0Z"/>
      <path class="cls-2" d="M235.6,86.8l3.8,9.4,3.8-9.4h2v11.6h-1.5v-9.4c.1,0-3.7,9.4-3.7,9.4h-1.2l-3.8-9.3v4.8c.1,0,.1,4.5.1,4.5h-1.5v-11.6h2Z"/>
      <path class="cls-2" d="M251.9,93.8v4.5h-1.5v-11.6h4.3c1.3,0,2.3.3,3,1s1.1,1.5,1.1,2.6-.4,2-1,2.6c-.7.6-1.7.9-3,.9h-2.7ZM251.9,92.6h2.7c.8,0,1.4-.2,1.9-.6.4-.4.6-.9.6-1.7s-.2-1.2-.6-1.7c-.4-.4-1-.6-1.8-.7h-2.8v4.6h0Z"/>
      <path class="cls-2" d="M268.4,95.3h-4.9l-1.1,3h-1.6l4.4-11.6h1.3l4.4,11.6h-1.6l-1.1-3ZM264,94.1h3.9l-2-5.4-2,5.4h0Z"/>
      <path class="cls-2" d="M284.1,98.4h-1.5l-5.8-8.9v8.9h-1.5v-11.6h1.5l5.8,9v-9h1.5v11.6Z"/>
      <path class="cls-2" d="M292.6,92.6l3-5.8h1.7l-4,7.3v4.3h-1.5v-4.3l-4-7.3h1.8l3,5.8h0Z"/>
      <path class="cls-2" d="M94.6,45.2v7.1h23.3v7.5h-23.3v7.9h27.6v7.5h-35.6v-37.3h35.6v7.5h-27.6Z"/>
      <path class="cls-2" d="M138.5,37.8v29.8h23.3v7.5h-31.3v-37.3h8Z"/>
      <path class="cls-2" d="M176.4,45.2v7.1h23.3v7.5h-23.3v7.9h27.6v7.5h-35.6v-37.3h35.6v7.5h-27.6Z"/>
      <path class="cls-2" d="M252.1,60.6c-1.9,8.8-9.7,15.3-20.6,15.3h-2.8c-12.5,0-21-8.7-21-19.5s8.5-19.5,21-19.5h2.8c10.9,0,18.7,6.6,20.6,15.3h-8.3c-1.7-4.5-6.3-7.3-12.3-7.3h-2.8c-7.7,0-13.1,4.7-13.1,11.5s5.4,11.5,13.1,11.5h2.8c6,0,10.5-2.9,12.3-7.3h8.3,0Z"/>
      <path class="cls-2" d="M292,45.8h-14.6v29.2h-8v-29.2h-14.6v-8h37.2v8Z"/>
      <path class="cls-2" d="M317.3,60h-10.7v15.2h-8v-37.2h25.8c5.7,0,10.4,4.3,11,10,.5,5.6-3.3,10.8-8.9,11.8l9.3,15.4h-9.4s-9.2-15.2-9.2-15.2ZM306.6,52.5h17.8c1.3,0,2.4-.6,3.1-1.7.6-1.1.6-2.4,0-3.5-.6-1.1-1.8-1.7-3.1-1.7h-17.8v7h0Z"/>
      <path class="cls-2" d="M385.5,56.4c0,10.8-8.5,19.5-21,19.5h-2.8c-12.5,0-21-8.7-21-19.5s8.5-19.5,21-19.5h2.8c12.5,0,21,8.7,21,19.5ZM377.6,56.4c0-6.8-5.4-11.5-13-11.5h-2.8c-7.7,0-13,4.7-13,11.5s5.4,11.5,13,11.5h2.8c7.7,0,13-4.7,13-11.5Z"/>
      <path class="cls-2" d="M430.4,48.8c0,6.1-4.9,11-11,11h-17.8v15.2h-8v-37.2h25.8c6.1,0,11,4.9,11,11ZM419.4,52.3c1.3,0,2.4-.6,3.1-1.7.6-1.1.6-2.4,0-3.5-.6-1.1-1.8-1.7-3.1-1.7h-17.8v7h17.8Z"/>
      <path class="cls-2" d="M455.4,60h-10.7v15.2h-8v-37.2h25.8c5.7,0,10.4,4.3,11,10s-3.3,10.8-8.9,11.8l9.3,15.4h-9.4s-9.2-15.2-9.2-15.2ZM444.8,52.5h17.8c1.3,0,2.4-.6,3.1-1.7.6-1.1.6-2.4,0-3.5-.6-1.1-1.8-1.7-3.1-1.7h-17.8v7h0Z"/>
      <path class="cls-2" d="M522.8,56.4c0,10.8-8.5,19.5-21,19.5h-2.8c-12.5,0-21-8.7-21-19.5s8.5-19.5,21-19.5h2.8c12.5,0,21,8.7,21,19.5ZM514.8,56.4c0-6.8-5.4-11.5-13-11.5h-2.8c-7.7,0-13,4.7-13,11.5s5.4,11.5,13,11.5h2.8c7.7,0,13-4.7,13-11.5Z"/>
      <path class="cls-2" d="M554.2,37.8v21c.2,4.4-1.4,8.6-4.5,11.7-3.1,3.1-7.3,4.7-11.7,4.5h-14.1v-7.5h14.1c4.8,0,8.3-3.5,8.3-8.8v-21.1h8,0Z"/>
      <path class="cls-2" d="M570.4,45.2v7.1h23.3v7.5h-23.3v7.9h27.6v7.5h-35.6v-37.3h35.6v7.5h-27.6Z"/>
      <path class="cls-2" d="M646.2,60.6c-1.9,8.8-9.7,15.3-20.6,15.3h-2.8c-12.5,0-21-8.7-21-19.5s8.5-19.5,21-19.5h2.8c10.9,0,18.7,6.6,20.6,15.3h-8.3c-1.7-4.5-6.3-7.3-12.3-7.3h-2.8c-7.7,0-13,4.7-13,11.5s5.4,11.5,13,11.5h2.8c6,0,10.5-2.9,12.3-7.3,0,0,8.3,0,8.3,0Z"/>
      <path class="cls-2" d="M686,45.8h-14.6v29.2h-8v-29.2h-14.6v-8h37.2v8h0Z"/>
    </g>
  </g>
</svg>